<svg viewBox="0 0 116 116" fill="none" xmlns="http://www.w3.org/2000/svg">
    <path d="M72 38.6667C72 46.3987 65.732 52.6667 58 52.6667C50.268 52.6667 44 46.3987 44 38.6667C44 30.9347 50.268 24.6667 58 24.6667C65.732 24.6667 72 30.9347 72 38.6667Z" stroke="white" stroke-linecap="round" />
    <path d="M64.8852 30.4583C66.0307 28.4743 67.7388 26.8745 69.7935 25.8612C71.8482 24.848 74.1573 24.4667 76.4286 24.7658C78.7 25.0648 80.8317 26.0307 82.5541 27.5412C84.2766 29.0517 85.5124 31.0391 86.1053 33.252C86.6983 35.4649 86.6217 37.804 85.8853 39.9733C85.1489 42.1427 83.7857 44.045 81.9682 45.4397C80.1506 46.8343 77.9604 47.6587 75.6743 47.8085C73.3882 47.9584 71.1091 47.4269 69.125 46.2815" stroke="white" />
    <path d="M51.1148 30.4583C49.9693 28.4743 48.2612 26.8745 46.2065 25.8612C44.1518 24.848 41.8427 24.4667 39.5714 24.7658C37.3 25.0648 35.1683 26.0307 33.4459 27.5412C31.7234 29.0517 30.4876 31.0391 29.8947 33.252C29.3017 35.4649 29.3783 37.804 30.1147 39.9733C30.8511 42.1427 32.2143 44.045 34.0318 45.4397C35.8494 46.8343 38.0396 47.6587 40.3257 47.8085C42.6118 47.9584 44.8909 47.4269 46.875 46.2815" stroke="white" />
    <path d="M58 60.4167C81.648 60.4167 84.2592 83.3659 84.5475 88.434C84.5789 88.9854 84.1356 89.4167 83.5833 89.4167H32.4166C31.8643 89.4167 31.421 88.9854 31.4524 88.434C31.7407 83.3659 34.352 60.4167 58 60.4167Z" stroke="white" stroke-linecap="round" />
    <path d="M94.1051 78.6595L94.5995 78.5847V78.5847L94.1051 78.6595ZM63.2543 60.8319L62.885 60.4948L62.2646 61.1743L63.1723 61.3251L63.2543 60.8319ZM83.043 79.75L82.5627 79.889L82.6671 80.25H83.043V79.75ZM74.9167 56.0833C82.0359 56.0833 86.5178 60.5005 89.3359 65.5969C92.1577 70.6999 93.2571 76.3998 93.6108 78.7344L94.5995 78.5847C94.2396 76.2087 93.1183 70.3705 90.2111 65.113C87.3002 59.849 82.5446 55.0833 74.9167 55.0833V56.0833ZM63.6235 61.169C66.3397 58.1941 69.9898 56.0833 74.9167 56.0833V55.0833C69.6618 55.0833 65.7565 57.3497 62.885 60.4948L63.6235 61.169ZM63.1723 61.3251C75.3445 63.3479 80.4287 72.5128 82.5627 79.889L83.5233 79.611C81.3402 72.0653 76.0578 62.4527 63.3362 60.3387L63.1723 61.3251ZM93.1449 79.25H83.043V80.25H93.1449V79.25ZM93.6108 78.7344C93.6511 79.0008 93.447 79.25 93.1449 79.25V80.25C94.026 80.25 94.7364 79.4882 94.5995 78.5847L93.6108 78.7344Z" fill="white" />
    <path d="M52.7458 60.8319L52.8277 61.3251L53.7354 61.1743L53.115 60.4948L52.7458 60.8319ZM21.8948 78.6595L22.3892 78.7344H22.3892L21.8948 78.6595ZM32.9571 79.75V80.25H33.3329L33.4374 79.889L32.9571 79.75ZM41.0834 56.0833C46.0103 56.0833 49.6604 58.1941 52.3765 61.169L53.115 60.4948C50.2435 57.3497 46.3382 55.0833 41.0834 55.0833V56.0833ZM22.3892 78.7344C22.7428 76.3998 23.8423 70.6999 26.6641 65.5969C29.4823 60.5005 33.9641 56.0833 41.0834 56.0833V55.0833C33.4555 55.0833 28.6999 59.849 25.789 65.113C22.8817 70.3705 21.7604 76.2087 21.4004 78.5847L22.3892 78.7344ZM22.8551 79.25C22.5529 79.25 22.3488 79.0008 22.3892 78.7344L21.4004 78.5847C21.2636 79.4882 21.974 80.25 22.8551 80.25V79.25ZM32.9571 79.25H22.8551V80.25H32.9571V79.25ZM33.4374 79.889C35.5714 72.5128 40.6556 63.3479 52.8277 61.3251L52.6638 60.3387C39.9423 62.4527 34.6598 72.0653 32.4768 79.611L33.4374 79.889Z" fill="white" />
</svg>
